<svg xmlns="http://www.w3.org/2000/svg" width="240" height="115" viewBox="0 0 240 115">
  <rect width="240" height="115" rx="12" fill="#1c1c1e"/>
  <g transform="translate(120, 75)">
    <defs><g id="aqi-slices"><path d="M -40 0 A 40 40 0 0 1 -39.99 -1.05" fill="none" stroke="rgb(0,228,0)" stroke-width="16" stroke-linecap="butt" /><path d="M -39.99 -0.7 A 40 40 0 0 1 -39.96 -1.74" fill="none" stroke="rgb(9,229,0)" stroke-width="16" stroke-linecap="butt" /><path d="M -39.98 -1.4 A 40 40 0 0 1 -39.93 -2.44" fill="none" stroke="rgb(17,230,0)" stroke-width="16" stroke-linecap="butt" /><path d="M -39.95 -2.09 A 40 40 0 0 1 -39.88 -3.14" fill="none" stroke="rgb(26,231,0)" stroke-width="16" stroke-linecap="butt" /><path d="M -39.9 -2.79 A 40 40 0 0 1 -39.82 -3.83" fill="none" stroke="rgb(34,232,0)" stroke-width="16" stroke-linecap="butt" /><path d="M -39.85 -3.49 A 40 40 0 0 1 -39.74 -4.53" fill="none" stroke="rgb(42,233,0)" stroke-width="16" stroke-linecap="butt" /><path d="M -39.78 -4.18 A 40 40 0 0 1 -39.66 -5.22" fill="none" stroke="rgb(51,233,0)" stroke-width="16" stroke-linecap="butt" /><path d="M -39.7 -4.87 A 40 40 0 0 1 -39.56 -5.91" fill="none" stroke="rgb(59,234,0)" stroke-width="16" stroke-linecap="butt" /><path d="M -39.61 -5.57 A 40 40 0 0 1 -39.45 -6.6" fill="none" stroke="rgb(68,235,0)" stroke-width="16" stroke-linecap="butt" /><path d="M -39.51 -6.26 A 40 40 0 0 1 -39.33 -7.29" fill="none" stroke="rgb(77,236,0)" stroke-width="16" stroke-linecap="butt" /><path d="M -39.39 -6.95 A 40 40 0 0 1 -39.2 -7.97" fill="none" stroke="rgb(85,237,0)" stroke-width="16" stroke-linecap="butt" /><path d="M -39.27 -7.63 A 40 40 0 0 1 -39.05 -8.66" fill="none" stroke="rgb(94,238,0)" stroke-width="16" stroke-linecap="butt" /><path d="M -39.13 -8.32 A 40 40 0 0 1 -38.89 -9.34" fill="none" stroke="rgb(102,239,0)" stroke-width="16" stroke-linecap="butt" /><path d="M -38.97 -9 A 40 40 0 0 1 -38.73 -10.02" fill="none" stroke="rgb(110,240,0)" stroke-width="16" stroke-linecap="butt" /><path d="M -38.81 -9.68 A 40 40 0 0 1 -38.55 -10.69" fill="none" stroke="rgb(119,241,0)" stroke-width="16" stroke-linecap="butt" /><path d="M -38.64 -10.35 A 40 40 0 0 1 -38.35 -11.36" fill="none" stroke="rgb(128,242,0)" stroke-width="16" stroke-linecap="butt" /><path d="M -38.45 -11.03 A 40 40 0 0 1 -38.15 -12.03" fill="none" stroke="rgb(136,242,0)" stroke-width="16" stroke-linecap="butt" /><path d="M -38.25 -11.69 A 40 40 0 0 1 -37.93 -12.69" fill="none" stroke="rgb(145,243,0)" stroke-width="16" stroke-linecap="butt" /><path d="M -38.04 -12.36 A 40 40 0 0 1 -37.71 -13.35" fill="none" stroke="rgb(153,244,0)" stroke-width="16" stroke-linecap="butt" /><path d="M -37.82 -13.02 A 40 40 0 0 1 -37.47 -14.01" fill="none" stroke="rgb(162,245,0)" stroke-width="16" stroke-linecap="butt" /><path d="M -37.59 -13.68 A 40 40 0 0 1 -37.22 -14.66" fill="none" stroke="rgb(170,246,0)" stroke-width="16" stroke-linecap="butt" /><path d="M -37.34 -14.33 A 40 40 0 0 1 -36.96 -15.31" fill="none" stroke="rgb(179,247,0)" stroke-width="16" stroke-linecap="butt" /><path d="M -37.09 -14.98 A 40 40 0 0 1 -36.68 -15.95" fill="none" stroke="rgb(187,248,0)" stroke-width="16" stroke-linecap="butt" /><path d="M -36.82 -15.63 A 40 40 0 0 1 -36.4 -16.59" fill="none" stroke="rgb(195,249,0)" stroke-width="16" stroke-linecap="butt" /><path d="M -36.54 -16.27 A 40 40 0 0 1 -36.1 -17.22" fill="none" stroke="rgb(204,250,0)" stroke-width="16" stroke-linecap="butt" /><path d="M -36.25 -16.9 A 40 40 0 0 1 -35.8 -17.85" fill="none" stroke="rgb(213,251,0)" stroke-width="16" stroke-linecap="butt" /><path d="M -35.95 -17.53 A 40 40 0 0 1 -35.48 -18.47" fill="none" stroke="rgb(221,251,0)" stroke-width="16" stroke-linecap="butt" /><path d="M -35.64 -18.16 A 40 40 0 0 1 -35.15 -19.09" fill="none" stroke="rgb(230,252,0)" stroke-width="16" stroke-linecap="butt" /><path d="M -35.32 -18.78 A 40 40 0 0 1 -34.81 -19.7" fill="none" stroke="rgb(238,253,0)" stroke-width="16" stroke-linecap="butt" /><path d="M -34.98 -19.39 A 40 40 0 0 1 -34.47 -20.3" fill="none" stroke="rgb(247,254,0)" stroke-width="16" stroke-linecap="butt" /><path d="M -34.64 -20 A 40 40 0 0 1 -34.11 -20.9" fill="none" stroke="rgb(255,255,0)" stroke-width="16" stroke-linecap="butt" /><path d="M -34.29 -20.6 A 40 40 0 0 1 -33.74 -21.49" fill="none" stroke="rgb(255,251,0)" stroke-width="16" stroke-linecap="butt" /><path d="M -33.92 -21.2 A 40 40 0 0 1 -33.36 -22.08" fill="none" stroke="rgb(255,246,0)" stroke-width="16" stroke-linecap="butt" /><path d="M -33.55 -21.79 A 40 40 0 0 1 -32.97 -22.66" fill="none" stroke="rgb(255,242,0)" stroke-width="16" stroke-linecap="butt" /><path d="M -33.16 -22.37 A 40 40 0 0 1 -32.56 -23.23" fill="none" stroke="rgb(255,238,0)" stroke-width="16" stroke-linecap="butt" /><path d="M -32.77 -22.94 A 40 40 0 0 1 -32.15 -23.79" fill="none" stroke="rgb(255,234,0)" stroke-width="16" stroke-linecap="butt" /><path d="M -32.36 -23.51 A 40 40 0 0 1 -31.73 -24.35" fill="none" stroke="rgb(255,229,0)" stroke-width="16" stroke-linecap="butt" /><path d="M -31.95 -24.07 A 40 40 0 0 1 -31.3 -24.9" fill="none" stroke="rgb(255,225,0)" stroke-width="16" stroke-linecap="butt" /><path d="M -31.52 -24.63 A 40 40 0 0 1 -30.86 -25.44" fill="none" stroke="rgb(255,221,0)" stroke-width="16" stroke-linecap="butt" /><path d="M -31.09 -25.17 A 40 40 0 0 1 -30.42 -25.98" fill="none" stroke="rgb(255,216,0)" stroke-width="16" stroke-linecap="butt" /><path d="M -30.64 -25.71 A 40 40 0 0 1 -29.96 -26.5" fill="none" stroke="rgb(255,212,0)" stroke-width="16" stroke-linecap="butt" /><path d="M -30.19 -26.24 A 40 40 0 0 1 -29.49 -27.02" fill="none" stroke="rgb(255,208,0)" stroke-width="16" stroke-linecap="butt" /><path d="M -29.73 -26.77 A 40 40 0 0 1 -29.01 -27.53" fill="none" stroke="rgb(255,203,0)" stroke-width="16" stroke-linecap="butt" /><path d="M -29.25 -27.28 A 40 40 0 0 1 -28.53 -28.04" fill="none" stroke="rgb(255,199,0)" stroke-width="16" stroke-linecap="butt" /><path d="M -28.77 -27.79 A 40 40 0 0 1 -28.04 -28.53" fill="none" stroke="rgb(255,195,0)" stroke-width="16" stroke-linecap="butt" /><path d="M -28.28 -28.28 A 40 40 0 0 1 -27.53 -29.01" fill="none" stroke="rgb(255,191,0)" stroke-width="16" stroke-linecap="butt" /><path d="M -27.79 -28.77 A 40 40 0 0 1 -27.02 -29.49" fill="none" stroke="rgb(255,186,0)" stroke-width="16" stroke-linecap="butt" /><path d="M -27.28 -29.25 A 40 40 0 0 1 -26.5 -29.96" fill="none" stroke="rgb(255,182,0)" stroke-width="16" stroke-linecap="butt" /><path d="M -26.77 -29.73 A 40 40 0 0 1 -25.98 -30.42" fill="none" stroke="rgb(255,178,0)" stroke-width="16" stroke-linecap="butt" /><path d="M -26.24 -30.19 A 40 40 0 0 1 -25.44 -30.86" fill="none" stroke="rgb(255,173,0)" stroke-width="16" stroke-linecap="butt" /><path d="M -25.71 -30.64 A 40 40 0 0 1 -24.9 -31.3" fill="none" stroke="rgb(255,169,0)" stroke-width="16" stroke-linecap="butt" /><path d="M -25.17 -31.09 A 40 40 0 0 1 -24.35 -31.73" fill="none" stroke="rgb(255,165,0)" stroke-width="16" stroke-linecap="butt" /><path d="M -24.63 -31.52 A 40 40 0 0 1 -23.79 -32.15" fill="none" stroke="rgb(255,160,0)" stroke-width="16" stroke-linecap="butt" /><path d="M -24.07 -31.95 A 40 40 0 0 1 -23.23 -32.56" fill="none" stroke="rgb(255,156,0)" stroke-width="16" stroke-linecap="butt" /><path d="M -23.51 -32.36 A 40 40 0 0 1 -22.66 -32.97" fill="none" stroke="rgb(255,152,0)" stroke-width="16" stroke-linecap="butt" /><path d="M -22.94 -32.77 A 40 40 0 0 1 -22.08 -33.36" fill="none" stroke="rgb(255,148,0)" stroke-width="16" stroke-linecap="butt" /><path d="M -22.37 -33.16 A 40 40 0 0 1 -21.49 -33.74" fill="none" stroke="rgb(255,143,0)" stroke-width="16" stroke-linecap="butt" /><path d="M -21.79 -33.55 A 40 40 0 0 1 -20.9 -34.11" fill="none" stroke="rgb(255,139,0)" stroke-width="16" stroke-linecap="butt" /><path d="M -21.2 -33.92 A 40 40 0 0 1 -20.3 -34.47" fill="none" stroke="rgb(255,135,0)" stroke-width="16" stroke-linecap="butt" /><path d="M -20.6 -34.29 A 40 40 0 0 1 -19.7 -34.81" fill="none" stroke="rgb(255,130,0)" stroke-width="16" stroke-linecap="butt" /><path d="M -20 -34.64 A 40 40 0 0 1 -19.09 -35.15" fill="none" stroke="rgb(255,126,0)" stroke-width="16" stroke-linecap="butt" /><path d="M -19.39 -34.98 A 40 40 0 0 1 -18.47 -35.48" fill="none" stroke="rgb(255,122,0)" stroke-width="16" stroke-linecap="butt" /><path d="M -18.78 -35.32 A 40 40 0 0 1 -17.85 -35.8" fill="none" stroke="rgb(255,118,0)" stroke-width="16" stroke-linecap="butt" /><path d="M -18.16 -35.64 A 40 40 0 0 1 -17.22 -36.1" fill="none" stroke="rgb(255,113,0)" stroke-width="16" stroke-linecap="butt" /><path d="M -17.53 -35.95 A 40 40 0 0 1 -16.59 -36.4" fill="none" stroke="rgb(255,109,0)" stroke-width="16" stroke-linecap="butt" /><path d="M -16.9 -36.25 A 40 40 0 0 1 -15.95 -36.68" fill="none" stroke="rgb(255,105,0)" stroke-width="16" stroke-linecap="butt" /><path d="M -16.27 -36.54 A 40 40 0 0 1 -15.31 -36.96" fill="none" stroke="rgb(255,101,0)" stroke-width="16" stroke-linecap="butt" /><path d="M -15.63 -36.82 A 40 40 0 0 1 -14.66 -37.22" fill="none" stroke="rgb(255,97,0)" stroke-width="16" stroke-linecap="butt" /><path d="M -14.98 -37.09 A 40 40 0 0 1 -14.01 -37.47" fill="none" stroke="rgb(255,92,0)" stroke-width="16" stroke-linecap="butt" /><path d="M -14.33 -37.34 A 40 40 0 0 1 -13.35 -37.71" fill="none" stroke="rgb(255,88,0)" stroke-width="16" stroke-linecap="butt" /><path d="M -13.68 -37.59 A 40 40 0 0 1 -12.69 -37.93" fill="none" stroke="rgb(255,84,0)" stroke-width="16" stroke-linecap="butt" /><path d="M -13.02 -37.82 A 40 40 0 0 1 -12.03 -38.15" fill="none" stroke="rgb(255,80,0)" stroke-width="16" stroke-linecap="butt" /><path d="M -12.36 -38.04 A 40 40 0 0 1 -11.36 -38.35" fill="none" stroke="rgb(255,76,0)" stroke-width="16" stroke-linecap="butt" /><path d="M -11.69 -38.25 A 40 40 0 0 1 -10.69 -38.55" fill="none" stroke="rgb(255,71,0)" stroke-width="16" stroke-linecap="butt" /><path d="M -11.03 -38.45 A 40 40 0 0 1 -10.02 -38.73" fill="none" stroke="rgb(255,67,0)" stroke-width="16" stroke-linecap="butt" /><path d="M -10.35 -38.64 A 40 40 0 0 1 -9.34 -38.89" fill="none" stroke="rgb(255,63,0)" stroke-width="16" stroke-linecap="butt" /><path d="M -9.68 -38.81 A 40 40 0 0 1 -8.66 -39.05" fill="none" stroke="rgb(255,59,0)" stroke-width="16" stroke-linecap="butt" /><path d="M -9 -38.97 A 40 40 0 0 1 -7.97 -39.2" fill="none" stroke="rgb(255,55,0)" stroke-width="16" stroke-linecap="butt" /><path d="M -8.32 -39.13 A 40 40 0 0 1 -7.29 -39.33" fill="none" stroke="rgb(255,50,0)" stroke-width="16" stroke-linecap="butt" /><path d="M -7.63 -39.27 A 40 40 0 0 1 -6.6 -39.45" fill="none" stroke="rgb(255,46,0)" stroke-width="16" stroke-linecap="butt" /><path d="M -6.95 -39.39 A 40 40 0 0 1 -5.91 -39.56" fill="none" stroke="rgb(255,42,0)" stroke-width="16" stroke-linecap="butt" /><path d="M -6.26 -39.51 A 40 40 0 0 1 -5.22 -39.66" fill="none" stroke="rgb(255,38,0)" stroke-width="16" stroke-linecap="butt" /><path d="M -5.57 -39.61 A 40 40 0 0 1 -4.53 -39.74" fill="none" stroke="rgb(255,34,0)" stroke-width="16" stroke-linecap="butt" /><path d="M -4.87 -39.7 A 40 40 0 0 1 -3.83 -39.82" fill="none" stroke="rgb(255,29,0)" stroke-width="16" stroke-linecap="butt" /><path d="M -4.18 -39.78 A 40 40 0 0 1 -3.14 -39.88" fill="none" stroke="rgb(255,25,0)" stroke-width="16" stroke-linecap="butt" /><path d="M -3.49 -39.85 A 40 40 0 0 1 -2.44 -39.93" fill="none" stroke="rgb(255,21,0)" stroke-width="16" stroke-linecap="butt" /><path d="M -2.79 -39.9 A 40 40 0 0 1 -1.74 -39.96" fill="none" stroke="rgb(255,17,0)" stroke-width="16" stroke-linecap="butt" /><path d="M -2.09 -39.95 A 40 40 0 0 1 -1.05 -39.99" fill="none" stroke="rgb(255,13,0)" stroke-width="16" stroke-linecap="butt" /><path d="M -1.4 -39.98 A 40 40 0 0 1 -0.35 -40" fill="none" stroke="rgb(255,8,0)" stroke-width="16" stroke-linecap="butt" /><path d="M -0.7 -39.99 A 40 40 0 0 1 0.35 -40" fill="none" stroke="rgb(255,4,0)" stroke-width="16" stroke-linecap="butt" /><path d="M 0 -40 A 40 40 0 0 1 1.05 -39.99" fill="none" stroke="rgb(255,0,0)" stroke-width="16" stroke-linecap="butt" /><path d="M 0.7 -39.99 A 40 40 0 0 1 1.74 -39.96" fill="none" stroke="rgb(251,2,5)" stroke-width="16" stroke-linecap="butt" /><path d="M 1.4 -39.98 A 40 40 0 0 1 2.44 -39.93" fill="none" stroke="rgb(248,4,10)" stroke-width="16" stroke-linecap="butt" /><path d="M 2.09 -39.95 A 40 40 0 0 1 3.14 -39.88" fill="none" stroke="rgb(244,6,15)" stroke-width="16" stroke-linecap="butt" /><path d="M 2.79 -39.9 A 40 40 0 0 1 3.83 -39.82" fill="none" stroke="rgb(240,8,20)" stroke-width="16" stroke-linecap="butt" /><path d="M 3.49 -39.85 A 40 40 0 0 1 4.53 -39.74" fill="none" stroke="rgb(236,11,25)" stroke-width="16" stroke-linecap="butt" /><path d="M 4.18 -39.78 A 40 40 0 0 1 5.22 -39.66" fill="none" stroke="rgb(233,13,30)" stroke-width="16" stroke-linecap="butt" /><path d="M 4.87 -39.7 A 40 40 0 0 1 5.91 -39.56" fill="none" stroke="rgb(229,15,35)" stroke-width="16" stroke-linecap="butt" /><path d="M 5.57 -39.61 A 40 40 0 0 1 6.6 -39.45" fill="none" stroke="rgb(225,17,40)" stroke-width="16" stroke-linecap="butt" /><path d="M 6.26 -39.51 A 40 40 0 0 1 7.29 -39.33" fill="none" stroke="rgb(221,19,45)" stroke-width="16" stroke-linecap="butt" /><path d="M 6.95 -39.39 A 40 40 0 0 1 7.97 -39.2" fill="none" stroke="rgb(218,21,50)" stroke-width="16" stroke-linecap="butt" /><path d="M 7.63 -39.27 A 40 40 0 0 1 8.66 -39.05" fill="none" stroke="rgb(214,23,55)" stroke-width="16" stroke-linecap="butt" /><path d="M 8.32 -39.13 A 40 40 0 0 1 9.34 -38.89" fill="none" stroke="rgb(210,25,60)" stroke-width="16" stroke-linecap="butt" /><path d="M 9 -38.97 A 40 40 0 0 1 10.02 -38.73" fill="none" stroke="rgb(206,27,65)" stroke-width="16" stroke-linecap="butt" /><path d="M 9.68 -38.81 A 40 40 0 0 1 10.69 -38.55" fill="none" stroke="rgb(203,29,70)" stroke-width="16" stroke-linecap="butt" /><path d="M 10.35 -38.64 A 40 40 0 0 1 11.36 -38.35" fill="none" stroke="rgb(199,32,76)" stroke-width="16" stroke-linecap="butt" /><path d="M 11.03 -38.45 A 40 40 0 0 1 12.03 -38.15" fill="none" stroke="rgb(195,34,81)" stroke-width="16" stroke-linecap="butt" /><path d="M 11.69 -38.25 A 40 40 0 0 1 12.69 -37.93" fill="none" stroke="rgb(192,36,86)" stroke-width="16" stroke-linecap="butt" /><path d="M 12.36 -38.04 A 40 40 0 0 1 13.35 -37.71" fill="none" stroke="rgb(188,38,91)" stroke-width="16" stroke-linecap="butt" /><path d="M 13.02 -37.82 A 40 40 0 0 1 14.01 -37.47" fill="none" stroke="rgb(184,40,96)" stroke-width="16" stroke-linecap="butt" /><path d="M 13.68 -37.59 A 40 40 0 0 1 14.66 -37.22" fill="none" stroke="rgb(180,42,101)" stroke-width="16" stroke-linecap="butt" /><path d="M 14.33 -37.34 A 40 40 0 0 1 15.31 -36.96" fill="none" stroke="rgb(177,44,106)" stroke-width="16" stroke-linecap="butt" /><path d="M 14.98 -37.09 A 40 40 0 0 1 15.95 -36.68" fill="none" stroke="rgb(173,46,111)" stroke-width="16" stroke-linecap="butt" /><path d="M 15.63 -36.82 A 40 40 0 0 1 16.59 -36.4" fill="none" stroke="rgb(169,48,116)" stroke-width="16" stroke-linecap="butt" /><path d="M 16.27 -36.54 A 40 40 0 0 1 17.22 -36.1" fill="none" stroke="rgb(165,50,121)" stroke-width="16" stroke-linecap="butt" /><path d="M 16.9 -36.25 A 40 40 0 0 1 17.85 -35.8" fill="none" stroke="rgb(162,52,126)" stroke-width="16" stroke-linecap="butt" /><path d="M 17.53 -35.95 A 40 40 0 0 1 18.47 -35.48" fill="none" stroke="rgb(158,55,131)" stroke-width="16" stroke-linecap="butt" /><path d="M 18.16 -35.64 A 40 40 0 0 1 19.09 -35.15" fill="none" stroke="rgb(154,57,136)" stroke-width="16" stroke-linecap="butt" /><path d="M 18.78 -35.32 A 40 40 0 0 1 19.7 -34.81" fill="none" stroke="rgb(150,59,141)" stroke-width="16" stroke-linecap="butt" /><path d="M 19.39 -34.98 A 40 40 0 0 1 20.3 -34.47" fill="none" stroke="rgb(147,61,146)" stroke-width="16" stroke-linecap="butt" /><path d="M 20 -34.64 A 40 40 0 0 1 20.9 -34.11" fill="none" stroke="rgb(143,63,151)" stroke-width="16" stroke-linecap="butt" /><path d="M 20.6 -34.29 A 40 40 0 0 1 21.49 -33.74" fill="none" stroke="rgb(143,63,151)" stroke-width="16" stroke-linecap="butt" /><path d="M 21.2 -33.92 A 40 40 0 0 1 22.08 -33.36" fill="none" stroke="rgb(143,63,151)" stroke-width="16" stroke-linecap="butt" /><path d="M 21.79 -33.55 A 40 40 0 0 1 22.66 -32.97" fill="none" stroke="rgb(143,63,151)" stroke-width="16" stroke-linecap="butt" /><path d="M 22.37 -33.16 A 40 40 0 0 1 23.23 -32.56" fill="none" stroke="rgb(143,63,151)" stroke-width="16" stroke-linecap="butt" /><path d="M 22.94 -32.77 A 40 40 0 0 1 23.79 -32.15" fill="none" stroke="rgb(143,63,151)" stroke-width="16" stroke-linecap="butt" /><path d="M 23.51 -32.36 A 40 40 0 0 1 24.35 -31.73" fill="none" stroke="rgb(143,63,151)" stroke-width="16" stroke-linecap="butt" /><path d="M 24.07 -31.95 A 40 40 0 0 1 24.9 -31.3" fill="none" stroke="rgb(143,63,151)" stroke-width="16" stroke-linecap="butt" /><path d="M 24.63 -31.52 A 40 40 0 0 1 25.44 -30.86" fill="none" stroke="rgb(143,63,151)" stroke-width="16" stroke-linecap="butt" /><path d="M 25.17 -31.09 A 40 40 0 0 1 25.98 -30.42" fill="none" stroke="rgb(143,63,151)" stroke-width="16" stroke-linecap="butt" /><path d="M 25.71 -30.64 A 40 40 0 0 1 26.5 -29.96" fill="none" stroke="rgb(143,63,151)" stroke-width="16" stroke-linecap="butt" /><path d="M 26.24 -30.19 A 40 40 0 0 1 27.02 -29.49" fill="none" stroke="rgb(143,63,151)" stroke-width="16" stroke-linecap="butt" /><path d="M 26.77 -29.73 A 40 40 0 0 1 27.53 -29.01" fill="none" stroke="rgb(143,63,151)" stroke-width="16" stroke-linecap="butt" /><path d="M 27.28 -29.25 A 40 40 0 0 1 28.04 -28.53" fill="none" stroke="rgb(143,63,151)" stroke-width="16" stroke-linecap="butt" /><path d="M 27.79 -28.77 A 40 40 0 0 1 28.53 -28.04" fill="none" stroke="rgb(143,63,151)" stroke-width="16" stroke-linecap="butt" /><path d="M 28.28 -28.28 A 40 40 0 0 1 29.01 -27.53" fill="none" stroke="rgb(143,63,151)" stroke-width="16" stroke-linecap="butt" /><path d="M 28.77 -27.79 A 40 40 0 0 1 29.49 -27.02" fill="none" stroke="rgb(143,63,151)" stroke-width="16" stroke-linecap="butt" /><path d="M 29.25 -27.28 A 40 40 0 0 1 29.96 -26.5" fill="none" stroke="rgb(143,63,151)" stroke-width="16" stroke-linecap="butt" /><path d="M 29.73 -26.77 A 40 40 0 0 1 30.42 -25.98" fill="none" stroke="rgb(143,63,151)" stroke-width="16" stroke-linecap="butt" /><path d="M 30.19 -26.24 A 40 40 0 0 1 30.86 -25.44" fill="none" stroke="rgb(143,63,151)" stroke-width="16" stroke-linecap="butt" /><path d="M 30.64 -25.71 A 40 40 0 0 1 31.3 -24.9" fill="none" stroke="rgb(143,63,151)" stroke-width="16" stroke-linecap="butt" /><path d="M 31.09 -25.17 A 40 40 0 0 1 31.73 -24.35" fill="none" stroke="rgb(143,63,151)" stroke-width="16" stroke-linecap="butt" /><path d="M 31.52 -24.63 A 40 40 0 0 1 32.15 -23.79" fill="none" stroke="rgb(143,63,151)" stroke-width="16" stroke-linecap="butt" /><path d="M 31.95 -24.07 A 40 40 0 0 1 32.56 -23.23" fill="none" stroke="rgb(143,63,151)" stroke-width="16" stroke-linecap="butt" /><path d="M 32.36 -23.51 A 40 40 0 0 1 32.97 -22.66" fill="none" stroke="rgb(143,63,151)" stroke-width="16" stroke-linecap="butt" /><path d="M 32.77 -22.94 A 40 40 0 0 1 33.36 -22.08" fill="none" stroke="rgb(143,63,151)" stroke-width="16" stroke-linecap="butt" /><path d="M 33.16 -22.37 A 40 40 0 0 1 33.74 -21.49" fill="none" stroke="rgb(143,63,151)" stroke-width="16" stroke-linecap="butt" /><path d="M 33.55 -21.79 A 40 40 0 0 1 34.11 -20.9" fill="none" stroke="rgb(143,63,151)" stroke-width="16" stroke-linecap="butt" /><path d="M 33.92 -21.2 A 40 40 0 0 1 34.47 -20.3" fill="none" stroke="rgb(143,63,151)" stroke-width="16" stroke-linecap="butt" /><path d="M 34.29 -20.6 A 40 40 0 0 1 34.81 -19.7" fill="none" stroke="rgb(143,63,151)" stroke-width="16" stroke-linecap="butt" /><path d="M 34.64 -20 A 40 40 0 0 1 35.15 -19.09" fill="none" stroke="rgb(143,63,151)" stroke-width="16" stroke-linecap="butt" /><path d="M 34.98 -19.39 A 40 40 0 0 1 35.48 -18.47" fill="none" stroke="rgb(143,63,151)" stroke-width="16" stroke-linecap="butt" /><path d="M 35.32 -18.78 A 40 40 0 0 1 35.8 -17.85" fill="none" stroke="rgb(143,63,151)" stroke-width="16" stroke-linecap="butt" /><path d="M 35.64 -18.16 A 40 40 0 0 1 36.1 -17.22" fill="none" stroke="rgb(143,63,151)" stroke-width="16" stroke-linecap="butt" /><path d="M 35.95 -17.53 A 40 40 0 0 1 36.4 -16.59" fill="none" stroke="rgb(143,63,151)" stroke-width="16" stroke-linecap="butt" /><path d="M 36.25 -16.9 A 40 40 0 0 1 36.68 -15.95" fill="none" stroke="rgb(143,63,151)" stroke-width="16" stroke-linecap="butt" /><path d="M 36.54 -16.27 A 40 40 0 0 1 36.96 -15.31" fill="none" stroke="rgb(143,63,151)" stroke-width="16" stroke-linecap="butt" /><path d="M 36.82 -15.63 A 40 40 0 0 1 37.22 -14.66" fill="none" stroke="rgb(143,63,151)" stroke-width="16" stroke-linecap="butt" /><path d="M 37.09 -14.98 A 40 40 0 0 1 37.47 -14.01" fill="none" stroke="rgb(143,63,151)" stroke-width="16" stroke-linecap="butt" /><path d="M 37.34 -14.33 A 40 40 0 0 1 37.71 -13.35" fill="none" stroke="rgb(143,63,151)" stroke-width="16" stroke-linecap="butt" /><path d="M 37.59 -13.68 A 40 40 0 0 1 37.93 -12.69" fill="none" stroke="rgb(143,63,151)" stroke-width="16" stroke-linecap="butt" /><path d="M 37.82 -13.02 A 40 40 0 0 1 38.15 -12.03" fill="none" stroke="rgb(143,63,151)" stroke-width="16" stroke-linecap="butt" /><path d="M 38.04 -12.36 A 40 40 0 0 1 38.35 -11.36" fill="none" stroke="rgb(143,63,151)" stroke-width="16" stroke-linecap="butt" /><path d="M 38.25 -11.69 A 40 40 0 0 1 38.55 -10.69" fill="none" stroke="rgb(143,63,151)" stroke-width="16" stroke-linecap="butt" /><path d="M 38.45 -11.03 A 40 40 0 0 1 38.73 -10.02" fill="none" stroke="rgb(143,63,151)" stroke-width="16" stroke-linecap="butt" /><path d="M 38.64 -10.35 A 40 40 0 0 1 38.89 -9.34" fill="none" stroke="rgb(143,63,151)" stroke-width="16" stroke-linecap="butt" /><path d="M 38.81 -9.68 A 40 40 0 0 1 39.05 -8.66" fill="none" stroke="rgb(143,63,151)" stroke-width="16" stroke-linecap="butt" /><path d="M 38.97 -9 A 40 40 0 0 1 39.2 -7.97" fill="none" stroke="rgb(143,63,151)" stroke-width="16" stroke-linecap="butt" /><path d="M 39.13 -8.32 A 40 40 0 0 1 39.33 -7.29" fill="none" stroke="rgb(143,63,151)" stroke-width="16" stroke-linecap="butt" /><path d="M 39.27 -7.63 A 40 40 0 0 1 39.45 -6.6" fill="none" stroke="rgb(143,63,151)" stroke-width="16" stroke-linecap="butt" /><path d="M 39.39 -6.95 A 40 40 0 0 1 39.56 -5.91" fill="none" stroke="rgb(143,63,151)" stroke-width="16" stroke-linecap="butt" /><path d="M 39.51 -6.26 A 40 40 0 0 1 39.66 -5.22" fill="none" stroke="rgb(143,63,151)" stroke-width="16" stroke-linecap="butt" /><path d="M 39.61 -5.57 A 40 40 0 0 1 39.74 -4.53" fill="none" stroke="rgb(143,63,151)" stroke-width="16" stroke-linecap="butt" /><path d="M 39.7 -4.87 A 40 40 0 0 1 39.82 -3.83" fill="none" stroke="rgb(143,63,151)" stroke-width="16" stroke-linecap="butt" /><path d="M 39.78 -4.18 A 40 40 0 0 1 39.88 -3.14" fill="none" stroke="rgb(143,63,151)" stroke-width="16" stroke-linecap="butt" /><path d="M 39.85 -3.49 A 40 40 0 0 1 39.93 -2.44" fill="none" stroke="rgb(143,63,151)" stroke-width="16" stroke-linecap="butt" /><path d="M 39.9 -2.79 A 40 40 0 0 1 39.96 -1.74" fill="none" stroke="rgb(143,63,151)" stroke-width="16" stroke-linecap="butt" /><path d="M 39.95 -2.09 A 40 40 0 0 1 39.99 -1.05" fill="none" stroke="rgb(143,63,151)" stroke-width="16" stroke-linecap="butt" /><path d="M 39.98 -1.4 A 40 40 0 0 1 40 -0.35" fill="none" stroke="rgb(143,63,151)" stroke-width="16" stroke-linecap="butt" /><path d="M 39.99 -0.7 A 40 40 0 0 1 40 0.35" fill="none" stroke="rgb(143,63,151)" stroke-width="16" stroke-linecap="butt" /></g><mask id="aqi-mask" x="-50%" y="-50%" width="200%" height="200%"><path d="M -40 0 A 40 40 0 0 1 -34.64 -20" stroke="white" fill="none" stroke-width="15" opacity="0.85"/><path d="M -34.64 -20 A 40 40 0 0 1 -20 -34.64" stroke="white" fill="none" stroke-width="15" opacity="0.85"/><path d="M -20 -34.64 A 40 40 0 0 1 0 -40" stroke="white" fill="none" stroke-width="15" opacity="0.85"/><path d="M 0 -40 A 40 40 0 0 1 20 -34.64" stroke="white" fill="none" stroke-width="15" opacity="0.85"/><path d="M 20 -34.64 A 40 40 0 0 1 40 0" stroke="white" fill="none" stroke-width="15" opacity="0.85"/></mask></defs>
    <path d="M -40 0 A 40 40 0 0 1 40 0" fill="none" stroke="#3a3a3c" stroke-width="14.7" stroke-linecap="butt"/>
    <use href="#aqi-slices" mask="url(#aqi-mask)" />
    <path d="M -25 -2.5 L -47.5 0 L -25 2.5 z" fill="#e0e0e0" transform="rotate(72)"/>
    <text x="0" y="-5" text-anchor="middle" font-family="sans-serif" font-size="12" fill="#e0e0e0" font-weight="bold">120</text>
    <text x="-38" y="8" text-anchor="middle" font-family="sans-serif" font-size="5" fill="#e0e0e0" opacity="0.5">0</text>
    <text x="38" y="8" text-anchor="middle" font-family="sans-serif" font-size="5" fill="#e0e0e0" opacity="0.5">300</text>
  </g>
  <text x="76.7" y="50" text-anchor="middle" font-family="sans-serif" font-size="6" fill="#ffff00">50</text>
  <text x="95" y="31.7" text-anchor="middle" font-family="sans-serif" font-size="6" fill="#ff7e00">100</text>
  <text x="120" y="25" text-anchor="middle" font-family="sans-serif" font-size="6" fill="#ff0000">150</text>
  <text x="145" y="31.7" text-anchor="middle" font-family="sans-serif" font-size="6" fill="#8f3f97">200</text>
</svg>