<svg xmlns="http://www.w3.org/2000/svg" width="240" height="115" viewBox="0 0 240 115">
  <rect width="240" height="115" rx="12" fill="#1c1c1e"/>
  <g transform="translate(120, 75)">
    <path d="M -40 0 A 40 40 0 0 1 40 0" fill="none" stroke="#3a3a3c" stroke-width="14.7" stroke-linecap="butt"/>
    <path d="M -40 0 A 40 40 0 0 1 -28.28 -28.28" stroke="#4caf50" fill="none" stroke-width="15" opacity="0.85"/>
    <path d="M -28.28 -28.28 A 40 40 0 0 1 -15.31 -36.96" stroke="#ffeb3b" fill="none" stroke-width="15" opacity="0.85"/>
    <path d="M -15.31 -36.96 A 40 40 0 0 1 22.22 -33.26" stroke="#ff9800" fill="none" stroke-width="15" opacity="0.85"/>
    <path d="M 22.22 -33.26 A 40 40 0 0 1 40 0" stroke="#f44336" fill="none" stroke-width="15" opacity="0.85"/>
    <path d="M -25 -2.5 L -47.5 0 L -25 2.5 z" fill="#e0e0e0" transform="rotate(61.875)"/>
    <text x="0" y="-5" text-anchor="middle" font-family="sans-serif" font-size="12" fill="#e0e0e0" font-weight="bold">950 ppm</text>
    <text x="-38" y="8" text-anchor="middle" font-family="sans-serif" font-size="5" fill="#e0e0e0" opacity="0.5">400</text>
    <text x="38" y="8" text-anchor="middle" font-family="sans-serif" font-size="5" fill="#e0e0e0" opacity="0.5">2000</text>
  </g>
  <text x="84.64" y="39.64" text-anchor="middle" font-family="sans-serif" font-size="6" fill="#ffeb3b">800</text>
  <text x="100.87" y="28.81" text-anchor="middle" font-family="sans-serif" font-size="6" fill="#ff9800">1000</text>
  <text x="147.78" y="33.43" text-anchor="middle" font-family="sans-serif" font-size="6" fill="#f44336">1500</text>
</svg>