<svg xmlns="http://www.w3.org/2000/svg" width="240" height="115" viewBox="0 0 240 115">
  <rect width="240" height="115" rx="12" fill="#1c1c1e"/>
  <g transform="translate(120, 75)">
    <path d="M -40 0 A 40 40 0 0 1 40 0" fill="none" stroke="#3a3a3c" stroke-width="14.7" stroke-linecap="butt"/>
    <path d="M -40 0 A 40 40 0 0 1 -26.19 -30.23" stroke="#4caf50" fill="none" stroke-width="15" opacity="0.85"/>
    <path d="M -26.19 -30.23 A 40 40 0 0 1 5.69 -39.59" stroke="#ffeb3b" fill="none" stroke-width="15" opacity="0.85"/>
    <path d="M 5.69 -39.59 A 40 40 0 0 1 26.19 -30.23" stroke="#ff9800" fill="none" stroke-width="15" opacity="0.85"/>
    <path d="M 26.19 -30.23 A 40 40 0 0 1 40 0" stroke="#f44336" fill="none" stroke-width="15" opacity="0.85"/>
    <circle cx="16.62" cy="-36.39" r="5.25" fill="#3c2800" opacity="0.9"/><path d="M12 7c-2.76 0-5 2.24-5 5s2.24 5 5 5 5-2.24 5-5-2.24-5-5-5zM2 13h2v-2H2v2zm18 0h2v-2h-2v2zM11 2v2h2V2h-2zm0 18v2h2v-2h-2zM5.99 4.58L4.58 5.99l1.41 1.41 1.41-1.41-1.41-1.41zm12.02 12.02l-1.41 1.41 1.41 1.41 1.41-1.41-1.41-1.41zM5.99 19.42l1.41-1.41-1.41-1.41-1.41 1.41 1.41 1.41zm12.02-12.02L19.42 6l-1.41-1.41-1.41 1.41 1.41 1.41z" transform="translate(11.37, -41.64) scale(0.44)" fill="#ffd500"/>
    <text x="0" y="-5" text-anchor="middle" font-family="sans-serif" font-size="12" fill="#e0e0e0" font-weight="bold">7</text>
    <text x="-38" y="8" text-anchor="middle" font-family="sans-serif" font-size="5" fill="#e0e0e0" opacity="0.5">0</text>
    <text x="38" y="8" text-anchor="middle" font-family="sans-serif" font-size="5" fill="#e0e0e0" opacity="0.5">11</text>
  </g>
  
</svg>