<svg xmlns="http://www.w3.org/2000/svg" width="240" height="115" viewBox="0 0 240 115">
  <rect width="240" height="115" rx="12" fill="#1c1c1e"/>
  <g transform="translate(120, 75)">
    <path d="M -40 0 A 40 40 0 0 1 40 0" fill="none" stroke="#3a3a3c" stroke-width="14.7" stroke-linecap="butt"/>
    <path d="M -40 0 A 40 40 0 0 1 -34.64 -20" stroke="#4caf50" fill="none" stroke-width="15" opacity="0.85"/>
    <path d="M -34.64 -20 A 40 40 0 0 1 0 -40" stroke="#ffeb3b" fill="none" stroke-width="15" opacity="0.85"/>
    <path d="M 0 -40 A 40 40 0 0 1 40 0" stroke="#f44336" fill="none" stroke-width="15" opacity="0.85"/>
    <circle cx="-15.31" cy="-36.96" r="5.25" fill="#0d47a1" opacity="0.9"/><path d="M13 20h-2V8l-5.5 5.5-1.42-1.42L12 4.16l7.92 7.92-1.42 1.42L13 8v12z" transform="translate(-20.56, -42.21) scale(0.44)" fill="#90caf9"/>
    <text x="0" y="-5" text-anchor="middle" font-family="sans-serif" font-size="12" fill="#e0e0e0" font-weight="bold">45 km/h</text>
    <text x="-38" y="8" text-anchor="middle" font-family="sans-serif" font-size="5" fill="#e0e0e0" opacity="0.5">0</text>
    <text x="38" y="8" text-anchor="middle" font-family="sans-serif" font-size="5" fill="#e0e0e0" opacity="0.5">120</text>
  </g>
  
</svg>